<?xml version="1.0" ?><!DOCTYPE svg  PUBLIC '-//W3C//DTD SVG 1.1//EN'  'http://www.w3.org/Graphics/SVG/1.1/DTD/svg11.dtd'><svg height="100%" style="fill-rule:evenodd;clip-rule:evenodd;stroke-linejoin:round;stroke-miterlimit:2;" version="1.1" viewBox="0 0 512 512" width="100%" xml:space="preserve" xmlns="http://www.w3.org/2000/svg" xmlns:serif="http://www.serif.com/" xmlns:xlink="http://www.w3.org/1999/xlink"><path d="M256,0c141.29,0 256,114.71 256,256c0,141.29 -114.71,256 -256,256c-141.29,0 -256,-114.71 -256,-256c0,-141.29 114.71,-256 256,-256Zm0,91c-91.09,0 -165,73.91 -165,165c0,91.09 73.91,165 165,165c90.912,0 165,-73.91 165,-165c0,-91.09 -74.088,-165 -165,-165Zm0,306.019c-32.571,0 -62.634,-11.095 -86.437,-29.707c2.505,-5.191 31.139,-60.307 110.596,-88.047c0.357,-0.178 0.538,-0.178 0.895,-0.36c19.866,51.362 27.918,94.493 30.066,106.841c-17.002,7.336 -35.614,11.273 -55.12,11.273Zm78.563,-24.159c-1.432,-8.59 -8.946,-49.751 -27.38,-100.396c44.204,-6.98 82.856,4.474 87.688,6.085c-6.082,39.191 -28.631,73.016 -60.308,94.311Zm-219.582,-116.682l0,-4.293c6.085,0.178 74.448,1.072 144.778,-20.044c4.115,7.874 7.874,15.926 11.451,23.981c-1.789,0.538 -3.756,1.072 -5.548,1.61c-72.656,23.443 -111.312,87.51 -114.533,92.879c-22.367,-24.876 -36.148,-57.981 -36.148,-94.133Zm250.005,-89.12c19.684,23.982 31.498,54.582 31.855,87.688c-4.653,-0.894 -51.183,-10.378 -98.07,-4.471c-1.072,-2.327 -1.97,-4.835 -3.042,-7.34c-2.865,-6.798 -6.085,-13.777 -9.306,-20.4c51.899,-21.117 75.52,-51.54 78.563,-55.477Zm-168.937,-38.478c3.759,5.013 28.812,39.911 52.255,81.428c-65.854,17.536 -124.017,17.18 -130.28,17.18c9.124,-43.666 38.653,-79.996 78.025,-98.608Zm59.951,-13.242c35.792,0 68.541,13.424 93.416,35.435c-2.504,3.577 -23.802,32.033 -73.91,50.823c-23.086,-42.411 -48.675,-77.131 -52.612,-82.5c10.557,-2.504 21.652,-3.758 33.106,-3.758Z"/></svg>